<svg width="10" height="10" viewBox="0 0 10 10" fill="none" xmlns="http://www.w3.org/2000/svg">
<path d="M0.894758 5.26343L0.894736 5.26346L0.898746 5.2663C1.14492 5.44042 1.45465 5.51312 1.73922 5.51312C1.86238 5.51312 1.98837 5.49991 2.1114 5.47136C2.04207 5.51044 1.97226 5.53675 1.90441 5.54775L1.63052 5.59217V5.86964V8.90875V9.23484H1.95661H4.13051H4.4566V8.90875V7.06093H5.54355V8.90875V9.23484H5.86964H8.04354H8.36962V8.90875V5.86529V5.5803L8.08721 5.54214C8.02106 5.5332 7.95109 5.50763 7.88451 5.46994C8.0099 5.4995 8.13777 5.51312 8.26093 5.51312C8.55049 5.51312 8.85565 5.44012 9.1014 5.2663L9.10142 5.26633L9.10539 5.26343C9.46417 5.00147 9.67397 4.59452 9.67397 4.13051V3.69573V3.6288L9.6476 3.56728L8.34326 0.523817L8.25856 0.326183H8.04354H2.39139H2.20216L2.10827 0.490484L0.369147 3.53395L0.326183 3.60914V3.69573V4.13051C0.326183 4.59452 0.535981 5.00147 0.894758 5.26343ZM3.91312 5.51312C4.02893 5.51312 4.14723 5.50144 4.26323 5.47631C4.16745 5.51689 4.04767 5.54074 3.91019 5.54355C3.77883 5.54318 3.65712 5.51811 3.55897 5.47501C3.6772 5.50106 3.79725 5.51312 3.91312 5.51312ZM6.43638 5.47668C6.34083 5.51712 6.22217 5.54075 6.08837 5.54355C5.95326 5.54318 5.83048 5.51787 5.73217 5.47466C5.85165 5.50097 5.97333 5.51312 6.09137 5.51312C6.20501 5.51312 6.32166 5.50153 6.43638 5.47668Z" stroke="white" stroke-width="0.624419"/>
</svg>
