<svg width="9" height="5" viewBox="0 0 9 5" fill="none" xmlns="http://www.w3.org/2000/svg">
<g clip-path="url(#clip0_285_1238)">
<path d="M4.00736 2.89087C4.30047 2.89087 4.58527 2.96788 4.83621 3.11475L4.93789 3.17425C5.01497 3.21936 5.02853 3.32494 4.96533 3.38796L4.09721 4.25367C4.04388 4.30685 3.95743 4.30685 3.90411 4.25367L3.04157 3.39353C2.97864 3.33078 2.99176 3.22574 3.06819 3.18029L3.16873 3.12052C3.42198 2.96994 3.71039 2.89087 4.00736 2.89087Z" fill="white"/>
<path d="M4.00736 1.30052C4.73649 1.30052 5.43656 1.54241 6.00686 1.99034L6.08746 2.05365C6.15171 2.10412 6.15736 2.19922 6.09952 2.2569L5.58125 2.77373C5.53331 2.82153 5.45746 2.82702 5.4031 2.78663L5.33993 2.73967C4.95475 2.45341 4.49029 2.29985 4.00736 2.29985C3.52146 2.29985 3.05429 2.45532 2.66783 2.74487L2.60459 2.79225C2.55023 2.83298 2.4741 2.82762 2.42602 2.77967L1.90794 2.26303C1.85022 2.20547 1.8557 2.11061 1.91966 2.06005L1.9998 1.99669C2.57146 1.54476 3.27471 1.30052 4.00736 1.30052Z" fill="white"/>
<path d="M4.00739 -0.28982C5.16454 -0.28982 6.27111 0.118358 7.147 0.866528L7.22176 0.930389C7.28218 0.981999 7.28574 1.07398 7.22948 1.13008L6.71289 1.64524C6.66284 1.69515 6.58285 1.69864 6.52861 1.65329L6.46465 1.59981C5.77503 1.02317 4.91068 0.709508 4.00739 0.709508C3.10102 0.709508 2.2339 1.02533 1.54325 1.60557L1.47927 1.65933C1.42504 1.70489 1.34488 1.70148 1.29474 1.65148L0.778227 1.1364C0.722051 1.08038 0.725509 0.988552 0.785738 0.936891L0.860215 0.873008C1.73718 0.120796 2.84682 -0.28982 4.00739 -0.28982Z" fill="white"/>
</g>
<defs>
<clipPath id="clip0_285_1238">
<rect width="8.32558" height="4.99535" fill="white" transform="scale(1.00093)"/>
</clipPath>
</defs>
</svg>
