<svg width="19" height="19" viewBox="0 0 19 19" fill="none" xmlns="http://www.w3.org/2000/svg">
<path d="M15.4369 10.6875C13.5779 10.6875 11.9637 11.7562 11.1845 13.3147L2.5573 4.68745L2.57956 4.66518L4.80965 2.4351C8.05645 -0.811699 13.3181 -0.811699 16.5649 2.4351C19.0547 4.92493 19.6336 8.60587 18.3015 11.6486C17.5074 11.0438 16.513 10.6875 15.4369 10.6875ZM1.83002 5.63737L10.7652 14.5726C10.7133 14.8509 10.6873 15.1403 10.6873 15.4371C10.6873 16.298 10.9173 17.1032 11.3144 17.8008C11.2031 17.8082 11.088 17.8119 10.973 17.8119H10.8728C9.61491 17.8119 8.40525 17.311 7.5147 16.4204L7.15106 16.0568C6.66496 15.5707 5.86718 15.5967 5.41448 16.1199L3.27345 18.5912C3.05823 18.8398 2.74654 18.9882 2.42001 18.9993C2.09347 19.0105 1.77065 18.8843 1.53688 18.6505L0.349478 17.4631C0.115708 17.2294 -0.0104529 16.9102 0.000678929 16.58C0.0118108 16.2498 0.160236 15.9418 0.408848 15.7266L2.88013 13.5855C3.39961 13.1328 3.4293 12.335 2.94321 11.849L2.57956 11.4853C1.68901 10.5948 1.18808 9.3851 1.18808 8.1272V8.02701C1.18808 7.18099 1.41443 6.36094 1.83002 5.64108V5.63737ZM15.4369 11.8749C16.3816 11.8749 17.2877 12.2502 17.9557 12.9183C18.6238 13.5863 18.9991 14.4924 18.9991 15.4371C18.9991 16.3819 18.6238 17.2879 17.9557 17.956C17.2877 18.624 16.3816 18.9993 15.4369 18.9993C14.4921 18.9993 13.5861 18.624 12.918 17.956C12.25 17.2879 11.8747 16.3819 11.8747 15.4371C11.8747 14.4924 12.25 13.5863 12.918 12.9183C13.5861 12.2502 14.4921 11.8749 15.4369 11.8749Z" fill="white"/>
</svg>
