<svg width="21" height="22" viewBox="0 0 21 22" fill="none" xmlns="http://www.w3.org/2000/svg">
<path d="M6.00197 0.807692C6.00197 0.593479 5.91834 0.388039 5.76948 0.236568C5.62061 0.0850959 5.41872 0 5.20819 0C4.99767 0 4.79577 0.0850959 4.64691 0.236568C4.49805 0.388039 4.41442 0.593479 4.41442 0.807692V2.50923C2.89038 2.63308 1.89129 2.93677 1.15679 3.68523C0.421228 4.43262 0.12277 5.45031 0 7H21C20.8772 5.44923 20.5788 4.43262 19.8432 3.68523C19.1087 2.93677 18.1086 2.63308 16.5856 2.50815V0.807692C16.5856 0.593479 16.5019 0.388039 16.3531 0.236568C16.2042 0.0850959 16.0023 0 15.7918 0C15.5813 0 15.3794 0.0850959 15.2305 0.236568C15.0817 0.388039 14.998 0.593479 14.998 0.807692V2.43708C14.2942 2.42308 13.5047 2.42308 12.6167 2.42308H8.38328C7.49531 2.42308 6.70578 2.42308 6.00197 2.43708V0.807692Z" fill="#453D61"/>
<path fill-rule="evenodd" clip-rule="evenodd" d="M0 11.2468C0 10.3751 1.17347e-08 9.6 0.01365 8.90909H20.9863C21 9.6 21 10.3751 21 11.2468V13.3247C21 17.2426 21 19.2021 19.7694 20.4187C18.5398 21.6364 16.5595 21.6364 12.6 21.6364H8.4C4.44045 21.6364 2.46015 21.6364 1.2306 20.4187C-1.2517e-07 19.2021 0 17.2426 0 13.3247V11.2468ZM15.75 13.3247C16.0285 13.3247 16.2955 13.2152 16.4925 13.0204C16.6894 12.8255 16.8 12.5613 16.8 12.2857C16.8 12.0102 16.6894 11.7459 16.4925 11.5511C16.2955 11.3562 16.0285 11.2468 15.75 11.2468C15.4715 11.2468 15.2044 11.3562 15.0075 11.5511C14.8106 11.7459 14.7 12.0102 14.7 12.2857C14.7 12.5613 14.8106 12.8255 15.0075 13.0204C15.2044 13.2152 15.4715 13.3247 15.75 13.3247ZM15.75 17.4805C16.0285 17.4805 16.2955 17.3711 16.4925 17.1762C16.6894 16.9814 16.8 16.7171 16.8 16.4416C16.8 16.166 16.6894 15.9017 16.4925 15.7069C16.2955 15.5121 16.0285 15.4026 15.75 15.4026C15.4715 15.4026 15.2044 15.5121 15.0075 15.7069C14.8106 15.9017 14.7 16.166 14.7 16.4416C14.7 16.7171 14.8106 16.9814 15.0075 17.1762C15.2044 17.3711 15.4715 17.4805 15.75 17.4805ZM11.55 12.2857C11.55 12.5613 11.4394 12.8255 11.2425 13.0204C11.0455 13.2152 10.7785 13.3247 10.5 13.3247C10.2215 13.3247 9.95445 13.2152 9.75754 13.0204C9.56062 12.8255 9.45 12.5613 9.45 12.2857C9.45 12.0102 9.56062 11.7459 9.75754 11.5511C9.95445 11.3562 10.2215 11.2468 10.5 11.2468C10.7785 11.2468 11.0455 11.3562 11.2425 11.5511C11.4394 11.7459 11.55 12.0102 11.55 12.2857ZM11.55 16.4416C11.55 16.7171 11.4394 16.9814 11.2425 17.1762C11.0455 17.3711 10.7785 17.4805 10.5 17.4805C10.2215 17.4805 9.95445 17.3711 9.75754 17.1762C9.56062 16.9814 9.45 16.7171 9.45 16.4416C9.45 16.166 9.56062 15.9017 9.75754 15.7069C9.95445 15.5121 10.2215 15.4026 10.5 15.4026C10.7785 15.4026 11.0455 15.5121 11.2425 15.7069C11.4394 15.9017 11.55 16.166 11.55 16.4416ZM5.25 13.3247C5.52848 13.3247 5.79555 13.2152 5.99246 13.0204C6.18937 12.8255 6.3 12.5613 6.3 12.2857C6.3 12.0102 6.18937 11.7459 5.99246 11.5511C5.79555 11.3562 5.52848 11.2468 5.25 11.2468C4.97152 11.2468 4.70445 11.3562 4.50754 11.5511C4.31062 11.7459 4.2 12.0102 4.2 12.2857C4.2 12.5613 4.31062 12.8255 4.50754 13.0204C4.70445 13.2152 4.97152 13.3247 5.25 13.3247ZM5.25 17.4805C5.52848 17.4805 5.79555 17.3711 5.99246 17.1762C6.18937 16.9814 6.3 16.7171 6.3 16.4416C6.3 16.166 6.18937 15.9017 5.99246 15.7069C5.79555 15.5121 5.52848 15.4026 5.25 15.4026C4.97152 15.4026 4.70445 15.5121 4.50754 15.7069C4.31062 15.9017 4.2 16.166 4.2 16.4416C4.2 16.7171 4.31062 16.9814 4.50754 17.1762C4.70445 17.3711 4.97152 17.4805 5.25 17.4805Z" fill="#453D61"/>
</svg>
