<svg width="20" height="17" viewBox="0 0 20 17" fill="none" xmlns="http://www.w3.org/2000/svg">
<path fill-rule="evenodd" clip-rule="evenodd" d="M6.13274 0.312921C6.33311 0.513544 6.44566 0.785497 6.44566 1.06904C6.44566 1.35259 6.33311 1.62454 6.13274 1.82517L3.27945 4.67846C3.07882 4.87883 2.80687 4.99138 2.52332 4.99138C2.23978 4.99138 1.96782 4.87883 1.7672 4.67846L0.340553 3.25181C0.15155 3.04898 0.048656 2.7807 0.0535469 2.50351C0.0584377 2.22631 0.170732 1.96183 0.366772 1.76579C0.562812 1.56975 0.827291 1.45745 1.10449 1.45256C1.38169 1.44767 1.64996 1.55057 1.8528 1.73957L2.52332 2.41009L4.62049 0.312921C4.82112 0.112548 5.09307 0 5.37662 0C5.66016 0 5.93212 0.112548 6.13274 0.312921ZM7.87325 2.49569C7.87325 3.08632 8.3526 3.56568 8.94323 3.56568H18.9298C19.2135 3.56568 19.4857 3.45295 19.6864 3.25229C19.887 3.05162 19.9997 2.77947 19.9997 2.49569C19.9997 2.21191 19.887 1.93976 19.6864 1.7391C19.4857 1.53844 19.2135 1.42571 18.9298 1.42571H8.94323C8.65946 1.42571 8.3873 1.53844 8.18664 1.7391C7.98598 1.93976 7.87325 2.21191 7.87325 2.49569ZM8.94323 7.48896C8.65946 7.48896 8.3873 7.60169 8.18664 7.80235C7.98598 8.00301 7.87325 8.27516 7.87325 8.55894C7.87325 8.84272 7.98598 9.11487 8.18664 9.31554C8.3873 9.5162 8.65946 9.62893 8.94323 9.62893H18.9298C19.2135 9.62893 19.4857 9.5162 19.6864 9.31554C19.887 9.11487 19.9997 8.84272 19.9997 8.55894C19.9997 8.27516 19.887 8.00301 19.6864 7.80235C19.4857 7.60169 19.2135 7.48896 18.9298 7.48896H8.94323ZM6.13274 7.53176C6.32174 7.32892 6.42464 7.06065 6.41974 6.78345C6.41485 6.50625 6.30256 6.24177 6.10652 6.04573C5.91048 5.84969 5.646 5.7374 5.3688 5.7325C5.0916 5.72761 4.82333 5.83051 4.62049 6.01951L2.52332 8.11668L1.8528 7.44616C1.64996 7.25715 1.38169 7.15426 1.10449 7.15915C0.827291 7.16404 0.562812 7.27634 0.366772 7.47238C0.170732 7.66842 0.0584377 7.9329 0.0535469 8.21009C0.048656 8.48729 0.15155 8.75557 0.340553 8.9584L1.7672 10.385C1.96782 10.5854 2.23978 10.698 2.52332 10.698C2.80687 10.698 3.07882 10.5854 3.27945 10.385L6.13274 7.53176ZM6.13274 12.0828C6.33311 12.2834 6.44566 12.5553 6.44566 12.8389C6.44566 13.1224 6.33311 13.3944 6.13274 13.595L3.27945 16.4483C3.07882 16.6487 2.80687 16.7612 2.52332 16.7612C2.23978 16.7612 1.96782 16.6487 1.7672 16.4483L0.340553 15.0217C0.235428 14.9237 0.151109 14.8056 0.0926283 14.6743C0.0341473 14.5431 0.00270136 14.4014 0.000166519 14.2577C-0.00236832 14.114 0.0240599 13.9713 0.0778745 13.8381C0.131689 13.7049 0.211787 13.5839 0.313391 13.4822C0.414995 13.3806 0.536023 13.3005 0.669255 13.2467C0.802487 13.1929 0.945194 13.1665 1.08886 13.169C1.23253 13.1716 1.37421 13.203 1.50546 13.2615C1.63671 13.32 1.75484 13.4043 1.8528 13.5094L2.52332 14.1799L4.62049 12.0828C4.82112 11.8824 5.09307 11.7698 5.37662 11.7698C5.66016 11.7698 5.93212 11.8824 6.13274 12.0828ZM8.94323 13.5522C8.65946 13.5522 8.3873 13.6649 8.18664 13.8656C7.98598 14.0663 7.87325 14.3384 7.87325 14.6222C7.87325 14.906 7.98598 15.1781 8.18664 15.3788C8.3873 15.5794 8.65946 15.6922 8.94323 15.6922H18.9298C19.2135 15.6922 19.4857 15.5794 19.6864 15.3788C19.887 15.1781 19.9997 14.906 19.9997 14.6222C19.9997 14.3384 19.887 14.0663 19.6864 13.8656C19.4857 13.6649 19.2135 13.5522 18.9298 13.5522H8.94323Z" fill="#FFC700"/>
</svg>
