<svg width="100" height="49" viewBox="0 0 100 49" fill="none" xmlns="http://www.w3.org/2000/svg">
<rect width="100" height="49" rx="24.5" fill="white"/>
<path d="M39.2486 19.3365C40.2249 17.4312 41.7227 15.8296 43.5745 14.7106C45.4263 13.5916 47.5592 12.9993 49.7347 13C52.8972 13 55.5539 14.1397 57.5852 15.9958L54.2209 19.2939C53.004 18.1543 51.4573 17.5736 49.7347 17.5736C46.6778 17.5736 44.0903 19.5976 43.1691 22.315C42.9344 23.005 42.8007 23.741 42.8007 24.5C42.8007 25.259 42.9344 25.995 43.1691 26.685C44.0915 29.4036 46.6778 31.4264 49.7347 31.4264C51.313 31.4264 52.6566 31.0182 53.7081 30.3282C54.3176 29.9349 54.8394 29.4246 55.242 28.828C55.6446 28.2315 55.9196 27.5611 56.0503 26.8575H49.7347V22.4093H60.7864C60.9249 23.1614 61 23.9457 61 24.7611C61 28.2639 59.7209 31.2125 57.5007 33.2135C55.5598 34.9707 52.9031 36 49.7347 36C48.1935 36.0006 46.6673 35.7036 45.2433 35.1258C43.8193 34.5481 42.5254 33.7011 41.4356 32.6331C40.3458 31.5651 39.4815 30.2971 38.892 28.9016C38.3025 27.5061 37.9994 26.0104 38 24.5C38 22.6439 38.453 20.889 39.2486 19.3365Z" fill="#3F1A96"/>
</svg>
