<svg width="23" height="22" viewBox="0 0 23 22" fill="none" xmlns="http://www.w3.org/2000/svg">
<path d="M2.05773 12.1057L2.05768 12.1058L2.0669 12.1123C2.6331 12.5128 3.34549 12.68 4 12.68C4.28328 12.68 4.57304 12.6496 4.85603 12.584C4.69656 12.6739 4.53599 12.7344 4.37995 12.7597L3.75 12.8618V13.5V20.49V21.24H4.5H9.5H10.25V20.49V16.24H12.75V20.49V21.24H13.5H18.5H19.25V20.49V13.49V12.8345L18.6004 12.7468C18.4483 12.7262 18.2874 12.6674 18.1342 12.5807C18.4226 12.6487 18.7167 12.68 19 12.68C19.666 12.68 20.3679 12.5121 20.9331 12.1123L20.9331 12.1124L20.9423 12.1057C21.7675 11.5032 22.25 10.5672 22.25 9.5V8.5V8.34606L22.1894 8.20456L19.1894 1.20456L18.9945 0.75H18.5H5.5H5.06476L4.84882 1.1279L0.848818 8.1279L0.75 8.30083V8.5V9.5C0.75 10.5672 1.23254 11.5032 2.05773 12.1057ZM14.01 12.68C14.2714 12.68 14.5397 12.6534 14.8035 12.5962C14.5837 12.6892 14.3108 12.7436 14.0031 12.75C13.6923 12.7491 13.4099 12.6909 13.1838 12.5916C13.4586 12.6521 13.7385 12.68 14.01 12.68ZM9 12.68C9.26635 12.68 9.53845 12.6531 9.80524 12.5953C9.58496 12.6887 9.30947 12.7435 8.99327 12.75C8.69113 12.7491 8.41119 12.6915 8.18545 12.5924C8.45738 12.6523 8.73349 12.68 9 12.68Z" stroke="white" stroke-width="1.5"/>
</svg>
