<svg width="20" height="20" viewBox="0 0 20 20" fill="none" xmlns="http://www.w3.org/2000/svg">
<path d="M19 19L14.657 14.657M14.657 14.657C15.3999 13.9141 15.9892 13.0322 16.3912 12.0616C16.7933 11.091 17.0002 10.0507 17.0002 9.0001C17.0002 7.94951 16.7933 6.90921 16.3912 5.93859C15.9892 4.96797 15.3999 4.08604 14.657 3.34317C13.9141 2.60029 13.0322 2.011 12.0616 1.60896C11.091 1.20692 10.0507 0.999988 9.0001 0.999988C7.94951 0.999988 6.90921 1.20692 5.93859 1.60896C4.96797 2.011 4.08604 2.60029 3.34317 3.34317C1.84285 4.84348 0.999988 6.87834 0.999988 9.0001C0.999988 11.1219 1.84285 13.1567 3.34317 14.657C4.84348 16.1573 6.87834 17.0002 9.0001 17.0002C11.1219 17.0002 13.1567 16.1573 14.657 14.657Z" stroke="black" stroke-width="2" stroke-linecap="round" stroke-linejoin="round"/>
</svg>
