<svg width="91" height="29" viewBox="0 0 91 29" fill="none" xmlns="http://www.w3.org/2000/svg">
<path d="M23 15.586V13H21V16C21.0001 16.2652 21.1054 16.5195 21.293 16.707L24 19.414V21H2V19.414L4.707 16.707C4.89455 16.5195 4.99994 16.2652 5 16V12C4.99739 10.5949 5.36561 9.21395 6.06746 7.99667C6.76932 6.77939 7.77997 5.76887 8.99733 5.06716C10.2147 4.36545 11.5957 3.9974 13.0008 4.00018C14.4059 4.00296 15.7854 4.37648 17 5.083V2.846C16.0481 2.42458 15.0356 2.15595 14 2.05V0H12V2.05C9.53457 2.30093 7.24976 3.45712 5.58737 5.29498C3.92498 7.13285 3.0031 9.52184 3 12V15.586L0.293 18.293C0.105451 18.4805 5.66374e-05 18.7348 0 19V22C0 22.2652 0.105357 22.5196 0.292893 22.7071C0.48043 22.8946 0.734784 23 1 23H8V24C8 25.3261 8.52678 26.5979 9.46447 27.5355C10.4021 28.4732 11.6739 29 13 29C14.3261 29 15.5979 28.4732 16.5355 27.5355C17.4732 26.5979 18 25.3261 18 24V23H25C25.2652 23 25.5196 22.8946 25.7071 22.7071C25.8946 22.5196 26 22.2652 26 22V19C25.9999 18.7348 25.8946 18.4805 25.707 18.293L23 15.586ZM16 24C16 24.7956 15.6839 25.5587 15.1213 26.1213C14.5587 26.6839 13.7956 27 13 27C12.2044 27 11.4413 26.6839 10.8787 26.1213C10.3161 25.5587 10 24.7956 10 24V23H16V24Z" fill="white"/>
<path d="M23 11C25.2091 11 27 9.20914 27 7C27 4.79086 25.2091 3 23 3C20.7909 3 19 4.79086 19 7C19 9.20914 20.7909 11 23 11Z" fill="#FFC700"/>
<path d="M77.5005 8.75028C76.8068 8.75028 76.1199 8.88608 75.479 9.14993C74.8381 9.41377 74.2558 9.8005 73.7653 10.288C73.2748 10.7755 72.8857 11.3543 72.6203 11.9913C72.3548 12.6283 72.2182 13.311 72.2182 14.0005C72.2182 14.6899 72.3548 15.3726 72.6203 16.0096C72.8857 16.6466 73.2748 17.2254 73.7653 17.7129C74.2558 18.2004 74.8381 18.5871 75.479 18.851C76.1199 19.1148 76.8068 19.2506 77.5005 19.2506C78.9014 19.2506 80.245 18.6975 81.2356 17.7129C82.2263 16.7283 82.7828 15.3929 82.7828 14.0005C82.7828 12.608 82.2263 11.2726 81.2356 10.288C80.245 9.30342 78.9014 8.75028 77.5005 8.75028ZM73.9789 14.0005C73.9789 13.5408 74.07 13.0857 74.247 12.661C74.424 12.2364 74.6834 11.8505 75.0104 11.5255C75.3374 11.2005 75.7256 10.9427 76.1528 10.7668C76.5801 10.5909 77.038 10.5003 77.5005 10.5003C77.9629 10.5003 78.4209 10.5909 78.8481 10.7668C79.2754 10.9427 79.6636 11.2005 79.9906 11.5255C80.3176 11.8505 80.577 12.2364 80.754 12.661C80.9309 13.0857 81.022 13.5408 81.022 14.0005C81.022 14.9287 80.651 15.819 79.9906 16.4754C79.3302 17.1318 78.4344 17.5006 77.5005 17.5006C76.5665 17.5006 75.6708 17.1318 75.0104 16.4754C74.35 15.819 73.9789 14.9287 73.9789 14.0005ZM86.5508 23.7949L84.5224 22.9094C84.2337 22.7847 83.9197 22.7289 83.6054 22.7463C83.2911 22.7637 82.9853 22.8539 82.7123 23.0097C82.1642 23.3248 81.8144 23.8813 81.7451 24.5078L81.5009 26.7012C81.4768 26.9218 81.3845 27.1295 81.2368 27.2958C81.089 27.4622 80.893 27.5789 80.6757 27.6299C78.5872 28.1234 76.4114 28.1234 74.3229 27.6299C74.1058 27.5786 73.9101 27.4618 73.7625 27.2956C73.615 27.1293 73.5229 26.9216 73.4988 26.7012L73.2547 24.5113C73.2197 24.2031 73.1125 23.9073 72.9417 23.6477C72.7708 23.3882 72.5411 23.1721 72.271 23.0167C72.001 22.8622 71.6984 22.7726 71.3873 22.7552C71.0763 22.7378 70.7654 22.793 70.4797 22.9164L68.4513 23.8019C68.2463 23.8915 68.0183 23.9154 67.7989 23.8705C67.5796 23.8255 67.3797 23.7139 67.227 23.5511C65.7682 21.9952 64.682 20.1319 64.0494 18.1003C63.9823 17.8867 63.984 17.6577 64.0543 17.4451C64.1246 17.2326 64.26 17.0472 64.4414 16.9149L66.2339 15.5988C66.4862 15.4146 66.6914 15.1739 66.8328 14.8962C66.9742 14.6185 67.0479 14.3117 67.0479 14.0005C67.0479 13.6892 66.9742 13.3824 66.8328 13.1047C66.6914 12.827 66.4862 12.5863 66.2339 12.4021L64.4414 11.0895C64.2597 10.9571 64.1242 10.7715 64.0539 10.5588C63.9836 10.346 63.982 10.1167 64.0494 9.90299C64.682 7.87255 65.7692 6.01095 67.2293 4.45798C67.3822 4.29534 67.5821 4.18395 67.8015 4.13922C68.0208 4.09449 68.2487 4.11863 68.4536 4.2083L70.4727 5.0915C70.7599 5.21439 71.0722 5.26873 71.3844 5.25018C71.6966 5.23163 72.0001 5.1407 72.2706 4.98467C72.5411 4.82864 72.7711 4.61184 72.9422 4.35162C73.1133 4.09141 73.2207 3.795 73.2558 3.48611L73.5024 1.29504C73.5267 1.07196 73.6207 0.862068 73.7713 0.694859C73.9218 0.527651 74.1213 0.411539 74.3417 0.362845C75.3746 0.134171 76.4327 0.0132226 77.5157 0C78.5745 0.011667 79.6287 0.134171 80.6616 0.362845C80.8822 0.411605 81.0818 0.52789 81.2324 0.695328C81.3829 0.862765 81.4769 1.07292 81.5009 1.29621L81.7463 3.48728C81.7989 3.97329 82.0303 4.42285 82.396 4.74971C82.7617 5.07657 83.2359 5.2577 83.7277 5.25834C84.0012 5.25834 84.2724 5.20117 84.5259 5.09033L86.545 4.20714C86.7499 4.11746 86.9778 4.09332 87.1971 4.13805C87.4165 4.18278 87.6164 4.29418 87.7693 4.45681C89.229 6.0099 90.3158 7.87149 90.948 9.90182C91.0153 10.1153 91.0137 10.3442 90.9436 10.5567C90.8736 10.7693 90.7384 10.9547 90.5572 11.0872L88.767 12.4021C88.2564 12.7754 87.9477 13.3693 87.9477 14.0005C87.9477 14.6305 88.2564 15.2243 88.7682 15.5988L90.5595 16.9125C90.9304 17.1856 91.0877 17.6616 90.9516 18.0991C90.3182 20.1287 89.232 21.9899 87.774 23.5441C87.6213 23.7069 87.4214 23.8185 87.202 23.8635C86.9827 23.9084 86.7559 23.8845 86.5508 23.7949ZM80.1557 23.5639C80.4356 22.6919 81.0319 21.9546 81.8284 21.4954C82.3408 21.2019 82.9153 21.0321 83.5057 20.9995C84.0961 20.9668 84.686 21.0724 85.2279 21.3075L86.8055 21.9959C87.8181 20.8291 88.6024 19.4845 89.118 18.0314L87.7223 17.0082C87.2467 16.6619 86.8597 16.208 86.5928 15.6855C86.3258 15.163 86.1864 14.5853 86.1858 13.9993C86.1858 12.8011 86.7692 11.6892 87.72 10.9939L87.7223 10.9927L89.1157 9.96949C88.5996 8.51668 87.8149 7.17252 86.802 6.00619L85.2373 6.68988L85.2349 6.69105C84.7584 6.90106 84.2454 7.00839 83.7254 7.00839C82.8005 7.00753 81.9084 6.66754 81.2201 6.05356C80.5317 5.43958 80.0955 4.59477 79.9949 3.68095V3.67862L79.8036 1.97523C79.0484 1.83558 78.2826 1.76025 77.5146 1.75006C76.7242 1.76095 75.9514 1.836 75.1962 1.97523L75.0049 3.67979C74.939 4.26131 74.7368 4.81938 74.4146 5.30914C74.0923 5.7989 73.659 6.20671 73.1494 6.49979C72.6398 6.79288 72.0681 6.96307 71.4803 6.99669C70.8925 7.03031 70.3049 6.92643 69.7648 6.69338L68.1966 6.00736C67.1837 7.17368 66.399 8.51785 65.8829 9.97066L67.2798 10.9939C67.7542 11.3408 68.1399 11.7937 68.4057 12.3161C68.6715 12.8385 68.81 13.4157 68.81 14.001C68.81 14.5864 68.6715 15.1636 68.4057 15.686C68.1399 16.2084 67.7542 16.6613 67.2798 17.0082L65.8829 18.0326C66.3979 19.4878 67.1822 20.8344 68.1954 22.0029L69.7742 21.3145C70.3128 21.0808 70.899 20.976 71.4857 21.0084C72.0725 21.0408 72.6434 21.2096 73.1526 21.5012C73.6613 21.7933 74.094 22.2 74.416 22.6885C74.7379 23.1771 74.94 23.7338 75.0061 24.3141V24.32L75.1962 26.028C76.7187 26.3255 78.2834 26.3255 79.8059 26.028L79.9961 24.3165C80.0242 24.0582 80.0782 23.8074 80.1581 23.5639" fill="white"/>
</svg>
