<svg width="30" height="19" viewBox="0 0 30 19" fill="none" xmlns="http://www.w3.org/2000/svg">
<path d="M10.9445 1.98281H19.0562V16.5581H10.9445V1.98281Z" fill="#FF5F00"/>
<path d="M11.4594 9.27053C11.4594 6.30915 12.85 3.68245 14.9873 1.98281C13.4166 0.746766 11.4338 0 9.27064 0C4.14592 0 0 4.14592 0 9.27053C0 14.395 4.14592 18.5411 9.27053 18.5411C11.4336 18.5411 13.4165 17.7943 14.9873 16.5581C12.85 14.8843 11.4594 12.2319 11.4594 9.27053Z" fill="#EB001B"/>
<path d="M30.0002 9.27053C30.0002 14.395 25.8543 18.5411 20.7297 18.5411C18.5666 18.5411 16.5838 17.7943 15.0129 16.5581C17.1761 14.8586 18.5409 12.2319 18.5409 9.27053C18.5409 6.30915 17.1502 3.68245 15.0129 1.98281C16.5837 0.746766 18.5666 0 20.7297 0C25.8543 0 30.0002 4.17173 30.0002 9.27053Z" fill="#F79E1B"/>
</svg>
