<svg width="19" height="19" viewBox="0 0 19 19" fill="none" xmlns="http://www.w3.org/2000/svg">
<path d="M5.38935 0C5.56572 0 5.73486 0.0700623 5.85958 0.194774C5.98429 0.319486 6.05435 0.488631 6.05435 0.665V1.90855H13.1955V0.67355C13.1955 0.497181 13.2656 0.328036 13.3903 0.203324C13.515 0.0786123 13.6841 0.00855 13.8605 0.00855C14.0369 0.00855 14.206 0.0786123 14.3307 0.203324C14.4554 0.328036 14.5255 0.497181 14.5255 0.67355V1.90855H17.1C17.6037 1.90855 18.0869 2.1086 18.4432 2.46471C18.7995 2.82082 18.9997 3.30385 19 3.8076V17.1009C18.9997 17.6047 18.7995 18.0877 18.4432 18.4438C18.0869 18.8 17.6037 19 17.1 19H1.9C1.39625 19 0.913125 18.8 0.556833 18.4438C0.200541 18.0877 0.000251873 17.6047 0 17.1009L0 3.8076C0.000251873 3.30385 0.200541 2.82082 0.556833 2.46471C0.913125 2.1086 1.39625 1.90855 1.9 1.90855H4.72435V0.66405C4.7246 0.487846 4.79478 0.318944 4.91946 0.194438C5.04414 0.0699317 5.21315 -1.798e-07 5.38935 0ZM1.33 7.3549V17.1009C1.33 17.1758 1.34474 17.2499 1.37339 17.3191C1.40203 17.3882 1.44402 17.4511 1.49695 17.504C1.54988 17.5569 1.61271 17.5989 1.68187 17.6276C1.75103 17.6562 1.82515 17.6709 1.9 17.6709H17.1C17.1749 17.6709 17.249 17.6562 17.3181 17.6276C17.3873 17.5989 17.4501 17.5569 17.5031 17.504C17.556 17.4511 17.598 17.3882 17.6266 17.3191C17.6553 17.2499 17.67 17.1758 17.67 17.1009V7.3682L1.33 7.3549ZM6.33365 13.8881V15.4707H4.75V13.8881H6.33365ZM10.2914 13.8881V15.4707H8.70865V13.8881H10.2914ZM14.25 13.8881V15.4707H12.6664V13.8881H14.25ZM6.33365 10.1099V11.6926H4.75V10.1099H6.33365ZM10.2914 10.1099V11.6926H8.70865V10.1099H10.2914ZM14.25 10.1099V11.6926H12.6664V10.1099H14.25ZM4.72435 3.2376H1.9C1.82515 3.2376 1.75103 3.25234 1.68187 3.28099C1.61271 3.30963 1.54988 3.35162 1.49695 3.40455C1.44402 3.45748 1.40203 3.52031 1.37339 3.58947C1.34474 3.65863 1.33 3.73275 1.33 3.8076V6.02585L17.67 6.03915V3.8076C17.67 3.73275 17.6553 3.65863 17.6266 3.58947C17.598 3.52031 17.556 3.45748 17.5031 3.40455C17.4501 3.35162 17.3873 3.30963 17.3181 3.28099C17.249 3.25234 17.1749 3.2376 17.1 3.2376H14.5255V4.12015C14.5255 4.29652 14.4554 4.46566 14.3307 4.59038C14.206 4.71509 14.0369 4.78515 13.8605 4.78515C13.6841 4.78515 13.515 4.71509 13.3903 4.59038C13.2656 4.46566 13.1955 4.29652 13.1955 4.12015V3.2376H6.05435V4.1116C6.05435 4.28797 5.98429 4.45711 5.85958 4.58183C5.73486 4.70654 5.56572 4.7766 5.38935 4.7766C5.21298 4.7766 5.04384 4.70654 4.91912 4.58183C4.79441 4.45711 4.72435 4.28797 4.72435 4.1116V3.2376Z" fill="#392487"/>
</svg>
