<svg width="19" height="24" viewBox="0 0 19 24" fill="none" xmlns="http://www.w3.org/2000/svg">
<path d="M15.8306 23.0371C14.603 24.3036 13.2626 24.1036 11.9723 23.5037C10.6068 22.8904 9.35411 22.8638 7.91349 23.5037C6.10958 24.3303 5.15752 24.0903 4.08019 23.0371C-2.03306 16.3313 -1.1311 6.11923 5.80893 5.74594C7.50009 5.83926 8.67764 6.73248 9.66729 6.81247C11.1455 6.49251 12.5611 5.57263 14.1395 5.69261C16.0311 5.85259 17.4592 6.65249 18.3987 8.09231C14.4902 10.5853 15.4172 16.0646 19 17.5978C18.286 19.5975 17.3589 21.5839 15.8181 23.0504L15.8306 23.0371ZM9.54202 5.66595C9.35411 2.69299 11.6215 0.23997 14.2272 0C14.5905 3.43957 11.2958 5.99924 9.54202 5.66595Z" fill="#373737"/>
</svg>
