<svg width="9" height="9" viewBox="0 0 9 9" fill="none" xmlns="http://www.w3.org/2000/svg">
<path d="M4.81803 0.131729L8.86727 4.18097C9.15071 4.46441 8.95005 4.94897 8.54918 4.94897H8.09926V7.64846C8.09926 8.00644 7.95706 8.34975 7.70393 8.60288C7.4508 8.85601 7.10749 8.99821 6.74952 8.99821H6.2996V5.8488C6.29962 5.50452 6.16808 5.17325 5.93189 4.92276C5.69571 4.67227 5.37273 4.5215 5.02904 4.50131L4.94986 4.49906H4.05002C3.69205 4.49906 3.34874 4.64126 3.09561 4.89439C2.84248 5.14751 2.70028 5.49083 2.70028 5.8488V8.99821H2.25036C1.89239 8.99821 1.54908 8.85601 1.29595 8.60288C1.04282 8.34975 0.900617 8.00644 0.900617 7.64846V4.94897H0.450702C0.0502771 4.94897 -0.150835 4.46441 0.132612 4.18097L4.18185 0.131729C4.26622 0.047383 4.38064 0 4.49994 0C4.61924 0 4.73366 0.047383 4.81803 0.131729ZM4.94986 5.39889C5.06918 5.39889 5.18362 5.44629 5.26799 5.53067C5.35237 5.61504 5.39977 5.72948 5.39977 5.8488V8.99821H3.60011V5.8488C3.60012 5.7386 3.64058 5.63224 3.71381 5.54989C3.78704 5.46754 3.88794 5.41493 3.99738 5.40204L4.05002 5.39889H4.94986Z" fill="#CAE32C"/>
</svg>
