<svg width="23" height="23" viewBox="0 0 23 23" fill="none" xmlns="http://www.w3.org/2000/svg">
<path d="M11.4999 16.2777C12.7671 16.2777 13.9823 15.7744 14.8783 14.8783C15.7744 13.9823 16.2777 12.7671 16.2777 11.4999C16.2777 10.2328 15.7744 9.01755 14.8783 8.12155C13.9823 7.22554 12.7671 6.72217 11.4999 6.72217C10.2328 6.72217 9.01755 7.22554 8.12155 8.12155C7.22554 9.01755 6.72217 10.2328 6.72217 11.4999C6.72217 12.7671 7.22554 13.9823 8.12155 14.8783C9.01755 15.7744 10.2328 16.2777 11.4999 16.2777Z" stroke="white" stroke-width="1.5" stroke-linecap="round" stroke-linejoin="round"/>
<path d="M0.75 16.2778V6.72222C0.75 5.13829 1.37921 3.61923 2.49922 2.49922C3.61923 1.37921 5.13829 0.75 6.72222 0.75H16.2778C17.8617 0.75 19.3808 1.37921 20.5008 2.49922C21.6208 3.61923 22.25 5.13829 22.25 6.72222V16.2778C22.25 17.8617 21.6208 19.3808 20.5008 20.5008C19.3808 21.6208 17.8617 22.25 16.2778 22.25H6.72222C5.13829 22.25 3.61923 21.6208 2.49922 20.5008C1.37921 19.3808 0.75 17.8617 0.75 16.2778Z" stroke="white" stroke-width="1.5"/>
<path d="M18.0693 4.94185L18.0807 4.92932" stroke="white" stroke-width="1.5" stroke-linecap="round" stroke-linejoin="round"/>
</svg>
