<svg width="24" height="23" viewBox="0 0 24 23" fill="none" xmlns="http://www.w3.org/2000/svg">
<path d="M12.7424 1.26247L12.7423 1.26239C12.4141 0.934312 11.9691 0.750008 11.505 0.750008C11.041 0.750008 10.596 0.934312 10.2678 1.26239L10.2677 1.26247L1.26761 10.2626C0.16465 11.3655 0.947418 13.2499 2.50495 13.2499H2.75495V18.5C2.75495 19.4946 3.15004 20.4484 3.85331 21.1517C4.55658 21.8549 5.51042 22.25 6.50499 22.25H7.505H8.25501V21.5V14.4999C8.25501 13.9032 8.49206 13.3309 8.91403 12.9089C9.33599 12.487 9.90829 12.2499 10.505 12.2499H12.4944L12.6476 12.2543C13.2166 12.2904 13.7508 12.5412 14.1421 12.9562C14.5358 13.3738 14.7551 13.926 14.7551 14.4999V14.4999V21.5V22.25H15.5051H16.5051C17.4997 22.25 18.4535 21.8549 19.1568 21.1517C19.86 20.4484 20.2551 19.4946 20.2551 18.5V13.2499H20.5051C22.0645 13.2499 22.8449 11.365 21.7425 10.2626L12.7424 1.26247ZM13.5051 22.25H14.2551V21.5V14.4999C14.2551 14.0358 14.0707 13.5907 13.7425 13.2625C13.4143 12.9343 12.9692 12.7499 12.5051 12.7499H10.505H10.4826L10.4602 12.7513L10.3432 12.7583L10.3217 12.7595L10.3003 12.7621C9.87459 12.8122 9.4821 13.0169 9.19727 13.3372C8.91244 13.6575 8.75507 14.0712 8.75501 14.4998V14.4999V21.5V22.25H9.50502H13.5051Z" stroke="white" stroke-width="1.5"/>
</svg>
