<svg width="148" height="179" viewBox="0 0 148 179" fill="none" xmlns="http://www.w3.org/2000/svg">
<path d="M60.4358 117.855L60.3914 117.75C59.4981 117.538 58.6099 117.304 57.7274 117.049L57.6608 117.027C49.2195 114.581 41.4239 110.273 34.8392 104.414C27.5975 97.9756 22.0285 89.849 18.6177 80.7431C15.207 71.6373 14.0581 61.8287 15.2712 52.1726C16.4843 42.5165 20.0226 33.3062 25.5776 25.3446C31.1326 17.383 38.5356 10.912 47.1411 6.49572C55.7466 2.07943 65.2933 -0.148002 74.9488 0.00762971C84.6043 0.163262 94.0755 2.69724 102.537 7.38861C110.997 12.08 118.191 18.7863 123.491 26.9228C128.791 35.0594 132.035 44.379 132.941 54.0693C133.23 57.1496 130.721 59.6632 127.65 59.6632C124.586 59.6632 122.137 57.1496 121.782 54.0767C120.804 45.5985 117.622 37.5309 112.558 30.6894C107.495 23.8479 100.729 18.475 92.9451 15.1138C85.161 11.7527 76.6345 10.5225 68.2274 11.5475C59.8203 12.5725 51.8308 15.8165 45.0664 20.9514C38.3019 26.0864 33.0024 32.9303 29.7036 40.7914C26.4047 48.6525 25.2234 57.2521 26.279 65.7208C27.3347 74.1896 30.5899 82.2274 35.7157 89.0216C40.8414 95.8158 47.6559 101.126 55.4704 104.414L55.7664 104.541C57.2464 105.153 58.7659 105.692 60.3248 106.16C61.6346 102.97 64.0016 100.337 67.0222 98.7089C70.0429 97.0812 73.5301 96.5599 76.8895 97.2339C80.2488 97.9079 83.2721 99.7355 85.4441 102.405C87.616 105.075 88.8021 108.421 88.8 111.873C88.8033 115.301 87.6349 118.626 85.4915 121.288C83.348 123.95 80.3603 125.786 77.0311 126.488C73.7018 127.19 70.2342 126.715 67.2118 125.143C64.1893 123.571 61.7964 120.997 60.4358 117.855ZM53.1394 127.342C39.9936 123.221 28.3375 115.301 19.6174 104.564C14.2133 105.202 9.2298 107.818 5.61335 111.915C1.9969 116.013 -0.000669655 121.306 1.68399e-07 126.79V132.123C1.68399e-07 159.854 31.154 179 74 179C116.846 179 148 158.802 148 132.123V126.79C148 120.856 145.661 115.164 141.498 110.968C137.334 106.772 131.688 104.414 125.8 104.414H98.827C100.573 110.307 100.198 116.631 97.7698 122.273C95.3415 127.914 91.0151 132.511 85.5534 135.252C80.0916 137.993 73.8452 138.702 67.9152 137.255C61.9853 135.808 56.7525 132.297 53.1394 127.342ZM111 59.6632C111 48.3858 106.042 38.2795 98.1906 31.44C94.2512 28.0148 89.6394 25.4654 84.6562 23.9583C79.673 22.4513 74.4305 22.0204 69.2709 22.6938C64.1114 23.3672 59.1507 25.1297 54.7127 27.8664C50.2747 30.6031 46.4593 34.2523 43.5154 38.576C40.5715 42.8996 38.5654 47.8004 37.628 52.9584C36.6906 58.1164 36.8429 63.4157 38.0752 68.5103C39.3074 73.6049 41.5917 78.3804 44.7791 82.5249C47.9665 86.6694 51.9852 90.0898 56.573 92.5628C61.3408 88.1912 67.5545 85.7685 74 85.7681C80.448 85.7667 86.6647 88.1895 91.4344 92.5628C97.3464 89.3795 102.289 84.6373 105.735 78.8427C109.182 73.0482 111.001 66.419 111 59.6632Z" fill="#FFC700"/>
</svg>
