<svg width="100" height="49" viewBox="0 0 100 49" fill="none" xmlns="http://www.w3.org/2000/svg">
<rect width="100" height="49" rx="24.5" fill="white"/>
<path d="M55.1402 12.0125C55.0853 11.9531 53.1065 12.0359 51.3844 13.8438C49.6624 15.65 49.9273 17.7219 49.9661 17.775C50.0049 17.8281 52.4215 17.9109 53.9642 15.8094C55.5069 13.7078 55.1952 12.0734 55.1402 12.0125ZM60.4937 30.3452C60.4162 30.1952 56.7379 28.4171 57.0804 24.9984C57.4228 21.5796 59.7862 20.6406 59.8233 20.539C59.8605 20.4375 58.8589 19.3047 57.7976 18.7312C57.0182 18.3273 56.1558 18.0957 55.2727 18.0531C55.0982 18.0484 54.4925 17.9047 53.247 18.2344C52.4264 18.4515 50.5767 19.1547 50.0679 19.1828C49.5574 19.2109 48.0389 18.3672 46.4057 18.1437C45.3606 17.9484 44.2524 18.3484 43.4592 18.6562C42.6677 18.9625 41.1621 19.8343 40.1089 22.1515C39.0556 24.4671 39.6065 28.1359 40.0007 29.2765C40.3948 30.4171 41.0103 32.2827 42.0571 33.6452C42.9875 35.1827 44.2217 36.2499 44.737 36.6124C45.2523 36.9749 46.7062 37.2155 47.7142 36.7171C48.5252 36.2358 49.9887 35.9593 50.567 35.9796C51.1437 35.9999 52.281 36.2202 53.4457 36.8218C54.3681 37.1296 55.2404 37.0014 56.1143 36.6577C56.9883 36.3124 58.2531 35.003 59.7296 32.3483C60.2896 31.114 60.5443 30.4463 60.4937 30.3452Z" fill="#3F1A96"/>
</svg>
