<svg width="10" height="10" viewBox="0 0 10 10" fill="none" xmlns="http://www.w3.org/2000/svg">
<g clip-path="url(#clip0_285_1247)">
<path d="M9.44525 3.41243C9.39518 2.79091 9.26935 2.30376 8.89947 1.93421C8.58888 1.62317 8.19489 1.48461 7.70835 1.41858V1.04169C7.70835 0.875933 7.6425 0.716962 7.52529 0.59975C7.40808 0.48254 7.24911 0.416693 7.08335 0.416693C6.91759 0.416693 6.75862 0.482541 6.64141 0.59975C6.5242 0.716961 6.45835 0.875932 6.45835 1.04169V1.3556C6.26453 1.35419 6.05707 1.35419 5.83564 1.35419H5.83335H4.16669H4.1644C3.94298 1.35419 3.73551 1.35419 3.54169 1.3556V1.04169C3.54169 0.875931 3.47584 0.716961 3.35863 0.599751C3.24142 0.482541 3.08245 0.416693 2.91669 0.416693C2.75093 0.416693 2.59196 0.482541 2.47475 0.599751C2.35754 0.716961 2.2917 0.875931 2.2917 1.04169V1.41881C1.80496 1.48459 1.41131 1.62311 1.10072 1.93406C0.73071 2.30364 0.604863 2.79129 0.554793 3.41241L0.527578 3.75002H0.866282H9.13376H9.47245L9.44525 3.41243Z" stroke="white" stroke-width="0.624419"/>
<path d="M0.838954 3.74986H0.532504L0.526514 4.05625C0.521038 4.33639 0.521038 4.64976 0.521038 4.99757V4.99986V5.83319L0.521038 5.85671C0.521031 6.62238 0.521026 7.22892 0.584868 7.70359C0.650564 8.19205 0.788982 8.58745 1.1009 8.89915C1.4126 9.21107 1.808 9.34949 2.29646 9.41519C2.77114 9.47903 3.37767 9.47902 4.14334 9.47902H4.16686H5.83352H5.85705C6.62272 9.47902 7.22925 9.47903 7.70393 9.41519C8.19234 9.3495 8.58771 9.2111 8.89939 8.89925C9.21138 8.58753 9.34982 8.1921 9.41552 7.70359C9.47936 7.22892 9.47936 6.62239 9.47935 5.85671V5.83319V4.99986V4.99751C9.47935 4.64972 9.47935 4.33638 9.47387 4.05625L9.46788 3.74986H9.16143H0.838954ZM7.15718 5.49018C7.13764 5.50972 7.11115 5.52069 7.08352 5.52069C7.05589 5.52069 7.0294 5.50972 7.00986 5.49018C6.99033 5.47065 6.97935 5.44415 6.97935 5.41653C6.97935 5.3889 6.99033 5.3624 7.00986 5.34287C7.0294 5.32333 7.05589 5.31236 7.08352 5.31236C7.11115 5.31236 7.13764 5.32333 7.15718 5.34287C7.17671 5.3624 7.18769 5.3889 7.18769 5.41653C7.18769 5.44415 7.17671 5.47065 7.15718 5.49018ZM7.15718 7.15684C7.13764 7.17638 7.11115 7.18735 7.08352 7.18735C7.05589 7.18735 7.0294 7.17638 7.00986 7.15685C6.99033 7.13731 6.97935 7.11082 6.97935 7.08319C6.97935 7.05556 6.99033 7.02907 7.00986 7.00953C7.0294 6.99 7.05589 6.97902 7.08352 6.97902C7.11115 6.97902 7.13764 6.99 7.15718 7.00953C7.17671 7.02907 7.18769 7.05556 7.18769 7.08319C7.18769 7.11082 7.17671 7.13731 7.15718 7.15684ZM5.10436 5.41653C5.10436 5.44415 5.09339 5.47065 5.07385 5.49018L5.29482 5.71115L5.07385 5.49018C5.05431 5.50972 5.02782 5.52069 5.00019 5.52069C4.97257 5.52069 4.94607 5.50972 4.92654 5.49018C4.907 5.47065 4.89603 5.44415 4.89603 5.41653C4.89603 5.3889 4.907 5.3624 4.92654 5.34287C4.94607 5.32333 4.97257 5.31236 5.00019 5.31236C5.02782 5.31236 5.05431 5.32333 5.07385 5.34287L5.29094 5.12578L5.07385 5.34287C5.09339 5.3624 5.10436 5.3889 5.10436 5.41653ZM5.10436 7.08319C5.10436 7.11081 5.09339 7.13731 5.07385 7.15685C5.05432 7.17638 5.02782 7.18735 5.00019 7.18735C4.97257 7.18735 4.94607 7.17638 4.92654 7.15685C4.907 7.13731 4.89603 7.11082 4.89603 7.08319C4.89603 7.05556 4.907 7.02907 4.92654 7.00953C4.94607 6.99 4.97257 6.97902 5.00019 6.97902C5.02782 6.97902 5.05431 6.99 5.07385 7.00953L5.29482 6.78856L5.07385 7.00953C5.09339 7.02907 5.10436 7.05556 5.10436 7.08319ZM2.99052 5.49018C2.97099 5.50972 2.94449 5.52069 2.91687 5.52069C2.88924 5.52069 2.86274 5.50972 2.84321 5.49018C2.82367 5.47065 2.8127 5.44415 2.8127 5.41653C2.8127 5.3889 2.82367 5.3624 2.84321 5.34287C2.86274 5.32333 2.88924 5.31236 2.91687 5.31236C2.94449 5.31236 2.97099 5.32333 2.99052 5.34287C3.01006 5.3624 3.02103 5.3889 3.02103 5.41653C3.02103 5.44415 3.01006 5.47065 2.99052 5.49018ZM2.99052 7.15685C2.97099 7.17638 2.94449 7.18735 2.91687 7.18735C2.88924 7.18735 2.86274 7.17638 2.84321 7.15685C2.82367 7.13731 2.8127 7.11082 2.8127 7.08319C2.8127 7.05556 2.82367 7.02907 2.84321 7.00953C2.86274 6.99 2.88924 6.97902 2.91687 6.97902C2.94449 6.97902 2.97099 6.99 2.99052 7.00953C3.01006 7.02907 3.02103 7.05556 3.02103 7.08319C3.02103 7.11082 3.01006 7.13731 2.99052 7.15685Z" stroke="white" stroke-width="0.624419"/>
</g>
<defs>
<clipPath id="clip0_285_1247">
<rect width="9.9907" height="9.9907" fill="white" transform="scale(1.00093)"/>
</clipPath>
</defs>
</svg>
