<svg width="33" height="34" viewBox="0 0 33 34" fill="none" xmlns="http://www.w3.org/2000/svg">
<path d="M9.43166 1.26923C9.43166 0.93261 9.30024 0.609776 9.06632 0.371749C8.83239 0.133722 8.51513 0 8.18431 0C7.85349 0 7.53622 0.133722 7.30229 0.371749C7.06837 0.609776 6.93695 0.93261 6.93695 1.26923V3.94308C4.54203 4.13769 2.97203 4.61492 1.81781 5.79108C0.661929 6.96554 0.192924 8.56477 0 11H33C32.8071 8.56308 32.3381 6.96554 31.1822 5.79108C30.028 4.61492 28.4563 4.13769 26.063 3.94138V1.26923C26.063 0.93261 25.9316 0.609776 25.6977 0.371749C25.4638 0.133722 25.1465 0 24.8157 0C24.4849 0 24.1676 0.133722 23.9337 0.371749C23.6998 0.609776 23.5683 0.93261 23.5683 1.26923V3.82969C22.4624 3.80769 21.2217 3.80769 19.8263 3.80769H13.1737C11.7783 3.80769 10.5376 3.80769 9.43166 3.82969V1.26923Z" fill="#FFC700"/>
<path fill-rule="evenodd" clip-rule="evenodd" d="M0 17.6735C0 16.3037 1.84402e-08 15.0857 0.02145 14H32.9785C33 15.0857 33 16.3037 33 17.6735V20.9388C33 27.0955 33 30.1747 31.0662 32.0865C29.134 34 26.0222 34 19.8 34H13.2C6.97785 34 3.86595 34 1.9338 32.0865C-1.96695e-07 30.1747 0 27.0955 0 20.9388V17.6735ZM24.75 20.9388C25.1876 20.9388 25.6073 20.7668 25.9167 20.4606C26.2262 20.1544 26.4 19.7391 26.4 19.3061C26.4 18.8731 26.2262 18.4578 25.9167 18.1517C25.6073 17.8455 25.1876 17.6735 24.75 17.6735C24.3124 17.6735 23.8927 17.8455 23.5833 18.1517C23.2738 18.4578 23.1 18.8731 23.1 19.3061C23.1 19.7391 23.2738 20.1544 23.5833 20.4606C23.8927 20.7668 24.3124 20.9388 24.75 20.9388ZM24.75 27.4694C25.1876 27.4694 25.6073 27.2974 25.9167 26.9912C26.2262 26.685 26.4 26.2697 26.4 25.8367C26.4 25.4037 26.2262 24.9885 25.9167 24.6823C25.6073 24.3761 25.1876 24.2041 24.75 24.2041C24.3124 24.2041 23.8927 24.3761 23.5833 24.6823C23.2738 24.9885 23.1 25.4037 23.1 25.8367C23.1 26.2697 23.2738 26.685 23.5833 26.9912C23.8927 27.2974 24.3124 27.4694 24.75 27.4694ZM18.15 19.3061C18.15 19.7391 17.9762 20.1544 17.6667 20.4606C17.3573 20.7668 16.9376 20.9388 16.5 20.9388C16.0624 20.9388 15.6427 20.7668 15.3333 20.4606C15.0238 20.1544 14.85 19.7391 14.85 19.3061C14.85 18.8731 15.0238 18.4578 15.3333 18.1517C15.6427 17.8455 16.0624 17.6735 16.5 17.6735C16.9376 17.6735 17.3573 17.8455 17.6667 18.1517C17.9762 18.4578 18.15 18.8731 18.15 19.3061ZM18.15 25.8367C18.15 26.2697 17.9762 26.685 17.6667 26.9912C17.3573 27.2974 16.9376 27.4694 16.5 27.4694C16.0624 27.4694 15.6427 27.2974 15.3333 26.9912C15.0238 26.685 14.85 26.2697 14.85 25.8367C14.85 25.4037 15.0238 24.9885 15.3333 24.6823C15.6427 24.3761 16.0624 24.2041 16.5 24.2041C16.9376 24.2041 17.3573 24.3761 17.6667 24.6823C17.9762 24.9885 18.15 25.4037 18.15 25.8367ZM8.25 20.9388C8.68761 20.9388 9.10729 20.7668 9.41673 20.4606C9.72616 20.1544 9.9 19.7391 9.9 19.3061C9.9 18.8731 9.72616 18.4578 9.41673 18.1517C9.10729 17.8455 8.68761 17.6735 8.25 17.6735C7.81239 17.6735 7.39271 17.8455 7.08327 18.1517C6.77384 18.4578 6.6 18.8731 6.6 19.3061C6.6 19.7391 6.77384 20.1544 7.08327 20.4606C7.39271 20.7668 7.81239 20.9388 8.25 20.9388ZM8.25 27.4694C8.68761 27.4694 9.10729 27.2974 9.41673 26.9912C9.72616 26.685 9.9 26.2697 9.9 25.8367C9.9 25.4037 9.72616 24.9885 9.41673 24.6823C9.10729 24.3761 8.68761 24.2041 8.25 24.2041C7.81239 24.2041 7.39271 24.3761 7.08327 24.6823C6.77384 24.9885 6.6 25.4037 6.6 25.8367C6.6 26.2697 6.77384 26.685 7.08327 26.9912C7.39271 27.2974 7.81239 27.4694 8.25 27.4694Z" fill="#FFC700"/>
</svg>
