<svg width="12" height="6" viewBox="0 0 12 6" fill="none" xmlns="http://www.w3.org/2000/svg">
<rect x="0.857107" y="1.07151" width="9.00004" height="3.85716" rx="0.553651" fill="white"/>
<path opacity="0.4" fill-rule="evenodd" clip-rule="evenodd" d="M2.40001 0.642976H8.31432C8.74144 0.642976 9.036 0.643309 9.26463 0.661989C9.48825 0.68026 9.6108 0.713924 9.70075 0.759755C9.90235 0.862477 10.0663 1.02639 10.169 1.22799C10.2148 1.31794 10.2485 1.44049 10.2667 1.66411C10.2854 1.89274 10.2858 2.1873 10.2858 2.61441V3.38584C10.2858 3.81296 10.2854 4.10752 10.2667 4.33615C10.2485 4.55977 10.2148 4.68232 10.169 4.77227C10.0663 4.97387 9.90235 5.13778 9.70075 5.2405C9.6108 5.28633 9.48825 5.32 9.26462 5.33827C9.036 5.35695 8.74144 5.35728 8.31432 5.35728H2.40001C1.9729 5.35728 1.67834 5.35695 1.44971 5.33827C1.22608 5.32 1.10353 5.28633 1.01359 5.2405C0.811983 5.13778 0.648075 4.97387 0.545353 4.77227C0.499522 4.68232 0.465857 4.55977 0.447586 4.33615C0.428907 4.10752 0.428573 3.81296 0.428573 3.38585V2.61442C0.428573 2.1873 0.428907 1.89274 0.447586 1.66411C0.465857 1.44049 0.499522 1.31794 0.545353 1.22799C0.648075 1.02639 0.811983 0.862477 1.01359 0.759755C1.10353 0.713924 1.22608 0.68026 1.44971 0.661989C1.67834 0.643309 1.9729 0.642976 2.40001 0.642976ZM0 2.61442C0 1.77433 0 1.35429 0.163491 1.03342C0.307302 0.751176 0.536774 0.521704 0.819018 0.377893C1.13989 0.214402 1.55993 0.214402 2.40001 0.214402H8.31432C9.15441 0.214402 9.57445 0.214402 9.89532 0.377893C10.1776 0.521704 10.407 0.751176 10.5508 1.03342C10.7143 1.35429 10.7143 1.77433 10.7143 2.61441V3.38584C10.7143 4.22593 10.7143 4.64597 10.5508 4.96684C10.407 5.24908 10.1776 5.47855 9.89532 5.62236C9.57445 5.78586 9.15441 5.78586 8.31432 5.78586H2.40001C1.55993 5.78586 1.13989 5.78586 0.819018 5.62236C0.536774 5.47855 0.307302 5.24908 0.163491 4.96684C0 4.64597 0 4.22593 0 3.38585V2.61442ZM11.1429 3.85716C11.4979 3.77145 11.7858 3.4734 11.7858 3.00001C11.7858 2.52662 11.4979 2.22858 11.1429 2.14287L11.1429 3.00001L11.1429 3.85716Z" fill="white"/>
</svg>
