<svg width="20" height="20" viewBox="0 0 20 20" fill="none" xmlns="http://www.w3.org/2000/svg">
<path d="M10.2997 0.00150745C9.32973 0.0315066 8.57975 0.841483 8.60975 1.80146C8.61975 2.04145 8.66975 2.27144 8.76975 2.50143L9.05974 3.14142C9.09974 3.27141 9.02974 3.41141 8.88974 3.45141C8.79975 3.50141 8.69975 3.45141 8.62975 3.37141L8.20976 2.82143C7.87977 2.40144 7.37979 2.14145 6.8498 2.13145C5.87983 2.11145 5.07985 2.88142 5.05985 3.8414C5.04985 4.26138 5.18985 4.66137 5.44984 5.00136L5.86983 5.50135H5.87983C5.95983 5.63134 5.92983 5.79134 5.81983 5.87134C5.72983 5.94134 5.60984 5.94134 5.52984 5.87134L4.99986 5.45135C4.65986 5.19136 4.24988 5.05136 3.83989 5.06136C2.87992 5.08136 2.10994 5.88134 2.12994 6.85131C2.13994 7.38129 2.39993 7.88128 2.81992 8.21127L3.3899 8.65126C3.4999 8.75125 3.4999 8.91125 3.3799 9.00125C3.347 9.03535 3.30436 9.05846 3.25782 9.06741C3.21128 9.07636 3.16312 9.07071 3.11991 9.05125H3.10991L2.49993 8.77125C2.26993 8.68126 2.03994 8.62126 1.79995 8.61126C0.839976 8.58126 0.0299991 9.34124 0 10.3112C0 11.0312 0.399988 11.6912 1.05997 11.9712L12.4496 17.041L17.0395 12.4511L11.9697 1.06148C11.6897 0.391496 10.9997 -0.0284917 10.2997 0.00150745ZM11.1297 4.10139C11.5497 4.09139 11.9297 4.33138 12.0896 4.71137L15.1396 11.5512L11.1897 7.61129L10.2597 5.50135C9.95971 4.87137 10.4197 4.12139 11.1297 4.10139ZM7.84977 6.85131C8.11977 6.85131 8.36976 6.95131 8.55975 7.1513L13.3696 11.9612C13.7696 12.3412 13.7796 12.9711 13.3996 13.3711C12.9996 13.7711 12.3796 13.7811 11.9597 13.3711L7.14979 8.56126C7.05469 8.4707 6.97861 8.36207 6.92602 8.24174C6.87343 8.12141 6.84538 7.99179 6.84352 7.86048C6.84165 7.72917 6.86601 7.59881 6.91517 7.47703C6.96433 7.35526 7.03729 7.24452 7.12979 7.1513C7.31979 6.95131 7.57978 6.85131 7.84977 6.85131ZM5.12985 10.1712C5.25985 10.1712 5.39984 10.2112 5.49984 10.2612L7.62978 11.2012L11.5697 15.1411L4.70986 12.0912C3.68989 11.6512 4.02988 10.1412 5.12985 10.1712ZM18.2795 14.0411L14.0396 18.281L14.8896 19.131C15.6495 19.8809 16.7495 20.1709 17.7795 19.9009C18.2868 19.7627 18.7493 19.4944 19.1211 19.1226C19.4929 18.7508 19.7612 18.2883 19.8994 17.781C20.1694 16.751 19.8794 15.6511 19.1294 14.8911L18.2795 14.0411Z" fill="#392487"/>
</svg>
