<svg width="19" height="22" viewBox="0 0 19 22" fill="none" xmlns="http://www.w3.org/2000/svg">
<path d="M18.0905 10.9319V3.77311C18.0905 3.01366 17.7888 2.28532 17.2518 1.74831C16.7148 1.2113 15.9865 0.909609 15.227 0.909609H3.77299C3.01354 0.909609 2.2852 1.2113 1.74819 1.74831C1.21117 2.28532 0.909485 3.01366 0.909485 3.77311V10.9319M18.0905 10.9319H0.909485M18.0905 10.9319V13.7954C18.0905 14.5548 17.7888 15.2832 17.2518 15.8202C16.7148 16.3572 15.9865 16.6589 15.227 16.6589H10.9318V19.5224C10.9318 19.9021 10.7809 20.2663 10.5124 20.5348C10.2439 20.8033 9.87972 20.9541 9.5 20.9541C9.12028 20.9541 8.7561 20.8033 8.4876 20.5348C8.21909 20.2663 8.06825 19.9021 8.06825 19.5224V16.6589H3.77299C3.01354 16.6589 2.2852 16.3572 1.74819 15.8202C1.21117 15.2832 0.909485 14.5548 0.909485 13.7954V10.9319M6.63649 0.909609V7.3525M9.5 0.909609V4.48899" stroke="#FFC700" stroke-width="1.8"/>
</svg>
