<svg width="392" height="145" viewBox="0 0 392 145" fill="none" xmlns="http://www.w3.org/2000/svg">
<path fill-rule="evenodd" clip-rule="evenodd" d="M0 12C0 5.37258 5.37258 0 12 0H380C386.627 0 392 5.37258 392 12V50.0164C391.835 50.0055 391.668 50 391.5 50C387.358 50 384 53.3579 384 57.5C384 61.6421 387.358 65 391.5 65C391.668 65 391.835 64.9945 392 64.9836V133C392 139.627 386.627 145 380 145H12C5.37258 145 0 139.627 0 133V64.9836C0.165262 64.9945 0.331986 65 0.5 65C4.64214 65 8 61.6421 8 57.5C8 53.3579 4.64214 50 0.5 50C0.331986 50 0.165262 50.0055 0 50.0164V12Z" fill="white"/>
</svg>
