<svg width="26" height="26" viewBox="0 0 26 26" fill="none" xmlns="http://www.w3.org/2000/svg">
<path d="M12.9999 0C20.1798 0 25.9998 5.82006 25.9998 12.9999C25.9998 20.1798 20.1798 25.9998 12.9999 25.9998C5.82006 25.9998 0 20.1798 0 12.9999C0 5.82006 5.82006 0 12.9999 0ZM12.9999 2.59998C10.2417 2.59998 7.59642 3.69569 5.64605 5.64605C3.69569 7.59642 2.59998 10.2417 2.59998 12.9999C2.59998 15.7582 3.69569 18.4034 5.64605 20.3538C7.59642 22.3041 10.2417 23.3999 12.9999 23.3999C15.7582 23.3999 18.4034 22.3041 20.3538 20.3538C22.3041 18.4034 23.3999 15.7582 23.3999 12.9999C23.3999 10.2417 22.3041 7.59642 20.3538 5.64605C18.4034 3.69569 15.7582 2.59998 12.9999 2.59998ZM12.9999 18.1999C13.3447 18.1999 13.6754 18.3368 13.9192 18.5806C14.1629 18.8244 14.2999 19.1551 14.2999 19.4999C14.2999 19.8447 14.1629 20.1753 13.9192 20.4191C13.6754 20.6629 13.3447 20.7999 12.9999 20.7999C12.6551 20.7999 12.3245 20.6629 12.0807 20.4191C11.8369 20.1753 11.6999 19.8447 11.6999 19.4999C11.6999 19.1551 11.8369 18.8244 12.0807 18.5806C12.3245 18.3368 12.6551 18.1999 12.9999 18.1999ZM12.9999 5.84996C14.0949 5.85 15.1556 6.23132 16 6.92844C16.8444 7.62555 17.4197 8.59494 17.627 9.67009C17.8343 10.7452 17.6608 11.859 17.1362 12.8201C16.6116 13.7813 15.7687 14.5297 14.7523 14.9369C14.6025 14.9938 14.4671 15.083 14.3558 15.1982C14.2986 15.2632 14.2895 15.3464 14.2908 15.4322L14.2999 15.5999C14.2995 15.9312 14.1727 16.2499 13.9452 16.4909C13.7178 16.7318 13.4069 16.8768 13.0761 16.8962C12.7453 16.9156 12.4196 16.808 12.1655 16.5954C11.9115 16.3827 11.7482 16.081 11.709 15.752L11.6999 15.5999V15.2749C11.6999 13.776 12.9089 12.8764 13.7851 12.5241C14.1417 12.3817 14.4528 12.1449 14.6849 11.839C14.9171 11.5331 15.0615 11.1698 15.1028 10.7881C15.144 10.4063 15.0805 10.0205 14.919 9.67212C14.7575 9.32374 14.5042 9.02593 14.1862 8.81067C13.8682 8.5954 13.4976 8.47082 13.1142 8.4503C12.7308 8.42977 12.349 8.51409 12.0098 8.69418C11.6707 8.87427 11.387 9.14334 11.1893 9.47249C10.9915 9.80165 10.8872 10.1784 10.8874 10.5624C10.8874 10.9072 10.7505 11.2379 10.5067 11.4817C10.2629 11.7255 9.93222 11.8624 9.58744 11.8624C9.24266 11.8624 8.912 11.7255 8.66821 11.4817C8.42441 11.2379 8.28745 10.9072 8.28745 10.5624C8.28745 9.31261 8.78394 8.11397 9.6677 7.23021C10.5515 6.34645 11.7501 5.84996 12.9999 5.84996Z" fill="#FFC700"/>
</svg>
