<svg width="23" height="23" viewBox="0 0 23 23" fill="none" xmlns="http://www.w3.org/2000/svg">
<path d="M2.96495 15.1233C3.3695 15.1233 3.60073 14.8921 3.60073 14.4875V9.66452C3.60073 9.25997 3.3695 9.02873 2.96495 9.02873H0V15.1237L2.96495 15.1233ZM8.63855 12.0676C8.63855 13.3893 9.57991 14.5204 10.8104 14.8178V9.34252C10.191 9.47945 9.63744 9.82482 9.24213 10.3209C8.84682 10.817 8.63376 11.4333 8.63855 12.0676ZM12.1399 14.8182C13.3786 14.5208 14.2953 13.3897 14.3118 12.068C14.32 10.7468 13.3872 9.64029 12.1399 9.34293V14.8182ZM20.0351 9.02914C19.6305 9.02914 19.3993 9.26038 19.3993 9.66493V14.4879C19.3993 14.8925 19.6305 15.1237 20.0351 15.1237H23V9.02873L20.0351 9.02914ZM23 16.4532H20.01C18.7881 16.4532 18.0698 15.7345 18.0698 14.5122V9.63988C18.0698 8.41759 18.7881 7.69925 20.0104 7.69925H23V6.84825C23 5.14707 22.133 4.28827 20.4068 4.28827H12.1399V8.09559C14.0723 8.40938 15.5012 10.0526 15.5258 12.0762C15.5505 14.1158 14.0805 15.7595 12.1399 16.0733V19.8724H20.4068C22.133 19.8724 23 19.0132 23 17.312V16.4532ZM0 16.4532V17.3116C0 19.0132 0.875232 19.872 2.59325 19.872H10.81V16.0729C8.87759 15.7677 7.42407 14.1241 7.42407 12.0762C7.42407 10.0444 8.87759 8.37611 10.81 8.07916V4.28827H2.59325C0.874821 4.28827 0 5.13886 0 6.84825V7.69925H2.98959C4.21187 7.69925 4.93021 8.41759 4.93021 9.63988V14.5122C4.93021 15.7345 4.21146 16.4532 2.98959 16.4532H0Z" fill="#453D61"/>
</svg>
