<svg width="9" height="7" viewBox="0 0 9 7" fill="none" xmlns="http://www.w3.org/2000/svg">
<path fill-rule="evenodd" clip-rule="evenodd" d="M2.56125 0.130687C2.64493 0.214474 2.69194 0.328051 2.69194 0.446471C2.69194 0.56489 2.64493 0.678468 2.56125 0.762255L1.36961 1.95389C1.28583 2.03758 1.17225 2.08458 1.05383 2.08458C0.93541 2.08458 0.821833 2.03758 0.738046 1.95389L0.142227 1.35807C0.0632928 1.27336 0.0203205 1.16132 0.0223631 1.04555C0.0244057 0.929785 0.0713037 0.819329 0.153177 0.737456C0.23505 0.655583 0.345506 0.608684 0.461274 0.606642C0.577043 0.604599 0.689084 0.647572 0.773795 0.726506L1.05383 1.00654L1.92968 0.130687C2.01347 0.0470039 2.12705 0 2.24547 0C2.36389 0 2.47746 0.0470039 2.56125 0.130687ZM3.28815 1.04229C3.28815 1.28896 3.48834 1.48915 3.73501 1.48915H7.90574C8.02426 1.48915 8.13792 1.44207 8.22172 1.35827C8.30553 1.27447 8.35261 1.16081 8.35261 1.04229C8.35261 0.923774 8.30553 0.810112 8.22172 0.726309C8.13792 0.642506 8.02426 0.595426 7.90574 0.595426H3.73501C3.6165 0.595426 3.50284 0.642506 3.41903 0.726309C3.33523 0.810112 3.28815 0.923774 3.28815 1.04229ZM3.73501 3.12765C3.6165 3.12765 3.50284 3.17474 3.41903 3.25854C3.33523 3.34234 3.28815 3.456 3.28815 3.57452C3.28815 3.69303 3.33523 3.8067 3.41903 3.8905C3.50284 3.9743 3.6165 4.02138 3.73501 4.02138H7.90574C8.02426 4.02138 8.13792 3.9743 8.22172 3.8905C8.30553 3.8067 8.35261 3.69303 8.35261 3.57452C8.35261 3.456 8.30553 3.34234 8.22172 3.25854C8.13792 3.17474 8.02426 3.12765 7.90574 3.12765H3.73501ZM2.56125 3.14553C2.64018 3.06082 2.68316 2.94878 2.68111 2.83301C2.67907 2.71724 2.63217 2.60679 2.5503 2.52491C2.46843 2.44304 2.35797 2.39614 2.2422 2.3941C2.12643 2.39206 2.01439 2.43503 1.92968 2.51396L1.05383 3.38982L0.773795 3.10978C0.689084 3.03085 0.577043 2.98787 0.461274 2.98992C0.345506 2.99196 0.23505 3.03886 0.153177 3.12073C0.0713037 3.2026 0.0244057 3.31306 0.0223631 3.42883C0.0203205 3.5446 0.0632928 3.65664 0.142227 3.74135L0.738046 4.33717C0.821833 4.42085 0.93541 4.46785 1.05383 4.46785C1.17225 4.46785 1.28583 4.42085 1.36961 4.33717L2.56125 3.14553ZM2.56125 5.04619C2.64493 5.12998 2.69194 5.24356 2.69194 5.36198C2.69194 5.48039 2.64493 5.59397 2.56125 5.67776L1.36961 6.8694C1.28583 6.95308 1.17225 7.00008 1.05383 7.00008C0.93541 7.00008 0.821833 6.95308 0.738046 6.8694L0.142227 6.27358C0.0983229 6.23267 0.0631087 6.18333 0.0386849 6.12852C0.0142611 6.0737 0.00112819 6.01453 6.95444e-05 5.95453C-0.000989097 5.89453 0.0100483 5.83493 0.0325232 5.77929C0.054998 5.72365 0.08845 5.6731 0.130883 5.63067C0.173317 5.58823 0.223863 5.55478 0.279505 5.53231C0.335147 5.50983 0.394747 5.49879 0.454747 5.49985C0.514748 5.50091 0.573921 5.51404 0.628736 5.53847C0.68355 5.56289 0.732885 5.59811 0.773795 5.64201L1.05383 5.92204L1.92968 5.04619C2.01347 4.96251 2.12705 4.9155 2.24547 4.9155C2.36389 4.9155 2.47746 4.96251 2.56125 5.04619ZM3.73501 5.65988C3.6165 5.65988 3.50284 5.70697 3.41903 5.79077C3.33523 5.87457 3.28815 5.98823 3.28815 6.10675C3.28815 6.22526 3.33523 6.33893 3.41903 6.42273C3.50284 6.50653 3.6165 6.55361 3.73501 6.55361H7.90574C8.02426 6.55361 8.13792 6.50653 8.22172 6.42273C8.30553 6.33893 8.35261 6.22526 8.35261 6.10675C8.35261 5.98823 8.30553 5.87457 8.22172 5.79077C8.13792 5.70697 8.02426 5.65988 7.90574 5.65988H3.73501Z" fill="white"/>
</svg>
