<svg width="24" height="24" viewBox="0 0 24 24" fill="none" xmlns="http://www.w3.org/2000/svg">
<path d="M3.09386 15.7809C3.516 15.7809 3.75729 15.5396 3.75729 15.1174V10.0847C3.75729 9.66257 3.516 9.42129 3.09386 9.42129H0V15.7813L3.09386 15.7809ZM9.01414 12.5923C9.01414 13.9714 9.99643 15.1517 11.2804 15.462V9.74872C10.6341 9.8916 10.0565 10.252 9.64396 10.7696C9.23146 11.2873 9.00914 11.9304 9.01414 12.5923ZM12.6677 15.4624C13.9603 15.1521 14.9169 13.9719 14.934 12.5927C14.9426 11.214 13.9693 10.0594 12.6677 9.74914V15.4624ZM20.9061 9.42172C20.484 9.42172 20.2427 9.663 20.2427 10.0851V15.1179C20.2427 15.54 20.484 15.7813 20.9061 15.7813H24V9.42129L20.9061 9.42172ZM24 17.1686H20.88C19.605 17.1686 18.8554 16.4186 18.8554 15.1431V10.059C18.8554 8.78357 19.605 8.034 20.8804 8.034H24V7.146C24 5.37086 23.0953 4.47472 21.294 4.47472H12.6677V8.44757C14.6841 8.775 16.1751 10.4897 16.2009 12.6013C16.2266 14.7296 14.6927 16.4447 12.6677 16.7721V20.7364H21.294C23.0953 20.7364 24 19.8399 24 18.0647V17.1686ZM0 17.1686V18.0643C0 19.8399 0.913286 20.736 2.706 20.736H11.28V16.7717C9.26357 16.4533 7.74686 14.7381 7.74686 12.6013C7.74686 10.4811 9.26357 8.74029 11.28 8.43043V4.47472H2.706C0.912857 4.47472 0 5.36229 0 7.146V8.034H3.11957C4.395 8.034 5.14457 8.78357 5.14457 10.059V15.1431C5.14457 16.4186 4.39457 17.1686 3.11957 17.1686H0Z" fill="#FFC700"/>
</svg>
